<svg xmlns="http://www.w3.org/2000/svg" viewBox="0 0 800 500" width="800" height="500" role="img" aria-label="IIoT for water plants (gateways, MQTT, Grafana)">
  <defs>
    <linearGradient id="g3" x1="0" x2="1">
      <stop offset="0%" stop-color="#16a34a"/>
      <stop offset="100%" stop-color="#22c55e"/>
    </linearGradient>
  </defs>
  <rect width="800" height="500" fill="#0b0c0f"/>
  <g transform="translate(50,50)">
    <rect x="0" y="0" width="700" height="380" rx="18" fill="#111319" stroke="#283041"/>
    <g transform="translate(28,28)">
      <text x="0" y="0" fill="#e7e9ee" font-family="system-ui, sans-serif" font-size="22">IIoT for Water Plants</text>
      <text x="0" y="26" fill="#a6adbb" font-family="system-ui, sans-serif" font-size="13">Teltonika · MQTT (EMQX) · OPC‑UA · Grafana</text>
      <!-- Water drops / nodes -->
      <g>
        <path d="M90 160c0 26 22 46 46 46s46-20 46-46S136 92 136 92 90 134 90 160z" fill="url(#g3)"/>
        <circle cx="270" cy="170" r="24" fill="#22c55e"/>
        <circle cx="350" cy="120" r="18" fill="#16a34a"/>
        <circle cx="420" cy="180" r="20" fill="#22c55e"/>
        <circle cx="500" cy="140" r="16" fill="#16a34a"/>
        <!-- Connections -->
        <line x1="182" y1="160" x2="246" y2="170" stroke="#22c55e" stroke-width="2"/>
        <line x1="294" y1="170" x2="332" y2="128" stroke="#22c55e" stroke-width="2"/>
        <line x1="368" y1="128" x2="410" y2="174" stroke="#22c55e" stroke-width="2"/>
        <line x1="440" y1="178" x2="484" y2="148" stroke="#22c55e" stroke-width="2"/>
      </g>
      <!-- KPI bars -->
      <rect x="0" y="280" width="620" height="12" fill="#22c55e" rx="4"/>
      <rect x="0" y="300" width="520" height="12" fill="#16a34a" rx="4"/>
    </g>
  </g>
</svg>
